<svg width="22" height="19" viewBox="0 0 22 19" fill="none" xmlns="http://www.w3.org/2000/svg">
<path d="M11 0C10.3804 0.000914629 9.77625 0.193671 9.27059 0.551787C8.76493 0.909903 8.38256 1.41581 8.17602 2H2.00002V4H3.94502L1.00002 11C0.528018 13 2.00002 14 4.50002 14C7.00002 14 8.56002 13 8.00002 11L5.05502 4H8.17402C8.32321 4.42113 8.56457 4.80361 8.88049 5.11953C9.19641 5.43544 9.57889 5.67681 10 5.826V17H1.00002V19H21V17H12V5.824C12.4206 5.67477 12.8025 5.43359 13.1181 5.11805C13.4336 4.80251 13.6748 4.42055 13.824 4H16.945L14 11C13.528 13 15 14 17.5 14C20 14 21.56 13 21 11L18.055 4H20V2H13.826C13.6194 1.41549 13.2367 0.909355 12.7306 0.551211C12.2246 0.193066 11.62 0.000501653 11 0ZM11 2C11.2652 2 11.5196 2.10536 11.7071 2.29289C11.8947 2.48043 12 2.73478 12 3C12 3.26522 11.8947 3.51957 11.7071 3.70711C11.5196 3.89464 11.2652 4 11 4C10.7348 4 10.4804 3.89464 10.2929 3.70711C10.1054 3.51957 10 3.26522 10 3C10 2.73478 10.1054 2.48043 10.2929 2.29289C10.4804 2.10536 10.7348 2 11 2ZM4.50002 7.25L6.00002 11H3.00002L4.50002 7.25ZM17.5 7.25L19 11H16L17.5 7.25Z" fill="#757575"/>
</svg>
