<svg width="20" height="20" viewBox="0 0 20 20" fill="red" xmlns="http://www.w3.org/2000/svg">
<path d="M10.104 16.552L9.999 16.647L9.894 16.552C5.14 12.237 2 9.38705 2 6.49805C2 4.50305 3.505 2.99805 5.5 2.99805C7.038 2.99805 8.54 3.99005 9.067 5.35905H10.933C11.46 3.99005 12.962 3.00005 14.5 3.00005C16.495 3.00005 18 4.50405 18 6.50005C18 9.38805 14.86 12.238 10.105 16.553L10.104 16.552ZM14.5 0.998047C13.6444 1.00408 12.8001 1.19338 12.0239 1.55321C11.2476 1.91304 10.5575 2.43504 10 3.08405C9.44249 2.43504 8.75238 1.91304 7.97614 1.55321C7.1999 1.19338 6.35556 1.00408 5.5 0.998047C2.416 0.998047 0 3.41405 0 6.49805C0 10.273 3.402 13.36 8.551 18.033L10 19.35L11.448 18.034C16.598 13.36 20 10.273 20 6.49805C20 3.41405 17.584 0.998047 14.5 0.998047Z" fill="#757575"/>
</svg>
